<svg width="13" height="13" viewBox="0 0 13 13" fill="none" xmlns="http://www.w3.org/2000/svg">
<path d="M12.6046 8.22916V12.8892H9.90302V8.54126C9.90302 7.44903 9.51227 6.70362 8.53439 6.70362C7.7879 6.70362 7.34367 7.20597 7.14823 7.69191C7.07696 7.86563 7.05862 8.10742 7.05862 8.3506V12.8892H4.35614C4.35614 12.8892 4.39253 5.52524 4.35614 4.76228H7.05835V5.91424C7.05287 5.92285 7.04575 5.93214 7.0406 5.94049H7.05835V5.91424C7.41737 5.36128 8.05853 4.57136 9.49366 4.57136C11.2717 4.57133 12.6046 5.7329 12.6046 8.22916ZM1.52922 0.844727C0.60471 0.844727 0 1.45114 0 2.24858C0 3.02866 0.587214 3.65347 1.49336 3.65347H1.51141C2.45383 3.65347 3.03993 3.02877 3.03993 2.24858C3.02217 1.45114 2.45383 0.844727 1.52922 0.844727ZM0.160504 12.8892H2.86196V4.76228H0.160504V12.8892Z" fill="#191847"/>
</svg>
