<svg width="12" height="10" viewBox="0 0 12 10" fill="none" xmlns="http://www.w3.org/2000/svg">
<path d="M11.49 1.67C11.1645 1.091 10.8113 0.9845 10.092 0.944C9.3735 0.89525 7.56675 0.875 6.0015 0.875C4.43325 0.875 2.62575 0.89525 1.908 0.94325C1.19025 0.9845 0.83625 1.09025 0.50775 1.67C0.1725 2.24825 0 3.24425 0 4.99775C0 4.99925 0 5 0 5C0 5.0015 0 5.00225 0 5.00225V5.00375C0 6.74975 0.1725 7.75325 0.50775 8.3255C0.83625 8.9045 1.1895 9.0095 1.90725 9.05825C2.62575 9.10025 4.43325 9.125 6.0015 9.125C7.56675 9.125 9.3735 9.10025 10.0927 9.059C10.812 9.01025 11.1652 8.90525 11.4908 8.32625C11.829 7.754 12 6.7505 12 5.0045C12 5.0045 12 5.00225 12 5.00075C12 5.00075 12 4.99925 12 4.9985C12 3.24425 11.829 2.24825 11.49 1.67ZM4.5 7.25V2.75L8.25 5L4.5 7.25Z" fill="#191847"/>
</svg>
