<svg width="8" height="13" viewBox="0 0 8 13" fill="none" xmlns="http://www.w3.org/2000/svg">
<path d="M6.9259 0.00270487L5.24009 0C3.34614 0 2.12219 1.25573 2.12219 3.19932V4.67442H0.427187C0.280718 4.67442 0.162109 4.79316 0.162109 4.93963V7.07688C0.162109 7.22335 0.280853 7.34196 0.427187 7.34196H2.12219V12.7349C2.12219 12.8814 2.2408 13 2.38727 13H4.59877C4.74524 13 4.86385 12.8813 4.86385 12.7349V7.34196H6.8457C6.99217 7.34196 7.11078 7.22335 7.11078 7.07688L7.11159 4.93963C7.11159 4.8693 7.0836 4.80195 7.03396 4.75218C6.98433 4.70241 6.91671 4.67442 6.84638 4.67442H4.86385V3.42396C4.86385 2.82294 5.00707 2.51783 5.78999 2.51783L6.92563 2.51742C7.07196 2.51742 7.19057 2.39868 7.19057 2.25234V0.267782C7.19057 0.121584 7.0721 0.00297535 6.9259 0.00270487Z" fill="#191847"/>
</svg>
